<?xml version="1.0" encoding="utf-8"?>
<!-- Generator: Adobe Illustrator 16.0.4, SVG Export Plug-In . SVG Version: 6.00 Build 0)  -->
<!DOCTYPE svg PUBLIC "-//W3C//DTD SVG 1.1//EN" "http://www.w3.org/Graphics/SVG/1.1/DTD/svg11.dtd">
<svg version="1.1" id="Livello_1" xmlns="http://www.w3.org/2000/svg" xmlns:xlink="http://www.w3.org/1999/xlink" x="0px" y="0px"
	 width="30px" height="30px" viewBox="0 0 30 30" enable-background="new 0 0 30 30" xml:space="preserve">
<g>
	<path fill="#010202" d="M25.193,9.696c0.119,0.117,0.28,0.179,0.439,0.179c0.344,0,0.624-0.273,0.624-0.61V3.776
		c0-0.337-0.277-0.61-0.624-0.61h-5.611c-0.252,0-0.479,0.148-0.576,0.377c-0.097,0.226-0.043,0.489,0.136,0.664L25.193,9.696z"/>
	<polygon fill="#010202" points="3.809,16.12 3.809,30 12.539,30 12.539,21.46 17.527,21.46 17.527,30 26.257,30 26.257,16.12 
		15.033,5.144 	"/>
	<path fill="#010202" d="M29.827,16.171c-0.003-0.006-0.005-0.014-0.012-0.02L15.475,2.125c-0.239-0.232-0.644-0.232-0.882,0
		L0.25,16.151c-0.225,0.221-0.258,0.585-0.013,0.845c0.283,0.277,0.664,0.235,0.887,0.023c0.002-0.002,0.006-0.002,0.009-0.004
		L15.033,3.419l13.902,13.597c0.002,0.002,0.003,0.002,0.005,0.004c0.24,0.223,0.632,0.223,0.868,0
		c0.003-0.002,0.005-0.002,0.007-0.004C30.042,16.793,30.075,16.422,29.827,16.171z"/>
</g>
</svg>
